<?xml version="1.0" standalone="no"?>
<!DOCTYPE svg PUBLIC "-//W3C//DTD SVG 20010904//EN"
 "http://www.w3.org/TR/2001/REC-SVG-20010904/DTD/svg10.dtd">
<svg version="1.0" xmlns="http://www.w3.org/2000/svg"
 width="411.000000pt" height="382.000000pt" viewBox="0 0 411.000000 382.000000"
 preserveAspectRatio="xMidYMid meet">
<metadata>
Created by potrace 1.15, written by Peter Selinger 2001-2017
</metadata>
<g transform="translate(0.000000,382.000000) scale(0.100000,-0.100000)"
fill="#000000" stroke="none">
<path d="M407 3776 c-56 -21 -129 -89 -169 -156 -127 -219 -92 -587 87 -910
14 -25 25 -55 25 -67 0 -12 -21 -63 -46 -113 -61 -120 -74 -193 -51 -285 21
-85 44 -123 152 -255 440 -536 441 -537 450 -528 12 11 -16 50 -164 228 -423
510 -392 466 -411 580 -17 100 1 170 71 282 29 46 52 88 52 93 0 6 -19 38 -42
72 -198 290 -222 784 -47 971 125 134 339 83 487 -115 120 -160 209 -383 209
-522 0 -33 5 -53 13 -55 6 -2 190 -25 407 -51 517 -62 643 -94 855 -219 107
-63 395 -230 935 -541 217 -125 447 -258 510 -295 63 -37 142 -82 175 -100 33
-18 71 -42 83 -54 54 -48 84 -155 64 -228 -9 -32 -167 -310 -517 -908 -56 -96
-131 -227 -166 -289 -77 -138 -126 -192 -192 -210 -46 -13 -131 -11 -169 4
-11 4 -18 3 -18 -4 0 -23 72 -44 135 -38 113 9 167 55 270 231 76 129 307 529
431 746 43 74 102 175 131 223 108 179 127 224 127 302 0 77 -12 110 -67 172
-40 45 -75 68 -368 236 -129 73 -346 199 -484 279 -867 503 -1008 582 -1100
615 -139 49 -294 76 -784 134 -201 24 -241 37 -241 78 0 9 -9 53 -21 96 -71
274 -224 502 -387 578 -78 37 -165 45 -225 23z"/>
<path d="M478 3540 c-147 -80 -183 -383 -78 -646 65 -162 132 -247 235 -296
94 -44 163 -35 233 31 41 38 33 53 -33 70 -67 17 -108 13 -159 -14 -26 -14
-49 -25 -52 -25 -17 0 -124 116 -124 134 0 12 13 41 29 64 79 119 229 178 379
149 52 -11 52 -10 12 131 -35 119 -93 238 -147 302 -88 102 -213 145 -295 100z
m167 -44 c28 -13 65 -38 83 -55 63 -62 131 -186 159 -295 22 -81 15 -96 -39
-96 -116 -1 -238 -57 -316 -147 -25 -29 -49 -53 -54 -53 -30 0 -79 121 -92
230 -16 130 -16 160 -2 234 20 102 55 162 109 187 56 25 92 24 152 -5z"/>
<path d="M923 2580 c-29 -55 -71 -89 -131 -106 -68 -20 -139 -14 -180 14 -61
44 -79 18 -42 -61 37 -76 79 -110 157 -128 42 -10 58 -9 100 5 63 21 115 70
131 123 16 55 15 145 -2 168 -14 19 -15 18 -33 -15z m-9 -128 c-1 -62 -48
-105 -124 -115 -42 -5 -115 15 -141 39 -19 17 -26 53 -11 55 4 0 39 1 77 2 59
2 79 8 125 34 30 18 60 31 65 29 6 -2 10 -22 9 -44z"/>
<path d="M2253 2328 c-6 -7 -13 -21 -16 -31 -4 -10 -66 -120 -138 -245 -73
-125 -164 -283 -204 -352 -40 -69 -98 -170 -130 -225 -257 -444 -272 -472
-244 -463 17 5 44 49 241 394 86 148 196 339 245 424 50 85 124 214 166 285
45 79 85 136 101 145 24 14 29 13 72 -10 25 -14 50 -33 55 -42 11 -21 12 -61
0 -73 -5 -6 -20 -30 -33 -55 -14 -25 -91 -160 -173 -300 -497 -860 -495 -856
-495 -869 0 -22 20 -10 43 27 13 20 77 129 142 242 291 506 463 804 526 909
38 62 69 116 69 120 0 3 -38 26 -85 50 -47 24 -92 53 -101 63 -20 21 -28 22
-41 6z"/>
<path d="M1366 2242 c-14 -27 -115 -205 -225 -397 -111 -192 -201 -355 -201
-363 0 -30 26 -2 73 79 171 293 303 521 329 569 41 73 56 90 85 90 34 0 100
-40 113 -69 13 -30 8 -47 -45 -135 -23 -39 -76 -129 -117 -201 -41 -71 -125
-216 -186 -322 -107 -184 -139 -255 -93 -208 11 11 73 112 139 225 65 113 170
293 232 400 62 107 121 206 132 219 10 13 18 27 18 31 0 4 -38 27 -85 51 -47
23 -92 50 -101 61 -27 28 -42 22 -68 -30z"/>
<path d="M1526 1798 c-9 -12 -16 -26 -16 -30 0 -4 -60 -112 -134 -240 -155
-270 -180 -318 -171 -326 11 -12 36 26 169 258 74 129 144 247 156 263 28 35
53 34 113 -3 60 -38 61 -60 4 -160 -24 -41 -87 -151 -141 -244 -103 -177 -132
-236 -118 -236 16 0 38 33 117 170 153 266 218 375 236 402 27 38 24 47 -26
68 -24 10 -68 34 -97 53 -29 18 -58 36 -65 40 -7 4 -18 -2 -27 -15z"/>
<path d="M2707 1663 c-13 -27 -91 -165 -174 -308 -336 -578 -393 -680 -393
-698 0 -45 11 -28 270 423 342 595 320 560 358 560 38 0 111 -47 118 -75 7
-28 6 -31 -35 -100 -16 -27 -48 -81 -69 -120 -22 -38 -86 -149 -142 -245 -290
-497 -328 -568 -299 -558 12 4 95 138 199 323 106 187 336 582 374 642 25 39
46 74 46 78 0 3 -21 16 -47 27 -27 12 -75 38 -109 60 -34 21 -64 38 -68 38 -3
0 -16 -21 -29 -47z"/>
<path d="M3382 1383 c-16 -32 -110 -197 -209 -368 -319 -548 -403 -698 -403
-717 0 -10 2 -18 5 -18 6 0 43 58 108 170 27 47 57 99 67 115 39 67 175 304
305 530 76 132 144 248 153 258 20 23 59 22 102 -4 42 -25 60 -46 60 -72 0
-10 -50 -105 -111 -210 -61 -106 -138 -239 -172 -297 -33 -58 -81 -141 -107
-185 -152 -261 -220 -384 -220 -400 0 -32 26 1 94 119 35 61 86 149 113 196
106 182 250 432 340 589 51 90 102 175 113 189 11 13 20 28 20 33 0 4 -28 21
-62 38 -35 16 -83 43 -108 60 -25 17 -48 31 -52 31 -4 0 -20 -26 -36 -57z"/>
<path d="M2755 1018 c-37 -68 -117 -208 -177 -312 -120 -206 -134 -236 -115
-236 15 0 31 26 202 325 75 132 144 248 153 258 8 9 26 17 39 17 38 0 110 -47
118 -77 6 -27 -5 -48 -231 -435 -88 -150 -111 -198 -95 -198 14 0 37 33 98
140 163 286 247 429 274 466 32 47 33 47 -46 87 -27 14 -70 40 -95 56 -25 17
-48 31 -51 31 -4 0 -37 -55 -74 -122z"/>
<path d="M1955 1093 c-8 -20 -38 -76 -66 -124 -28 -49 -54 -103 -59 -121 l-9
-33 27 31 c15 18 47 66 71 108 53 95 78 114 122 95 47 -19 89 -58 89 -82 0
-11 -28 -69 -61 -129 -58 -103 -69 -137 -35 -108 9 6 36 49 62 93 26 45 60
101 75 124 16 23 29 46 29 51 0 4 -22 18 -49 31 -27 12 -77 40 -110 61 -34 22
-64 40 -66 40 -3 0 -12 -16 -20 -37z"/>
</g>
</svg>
